<svg xmlns="http://www.w3.org/2000/svg" xmlns:xlink="http://www.w3.org/1999/xlink" width="500" zoomAndPan="magnify" viewBox="0 0 375 374.999991" height="500" preserveAspectRatio="xMidYMid meet" version="1.0"><defs><g/><clipPath id="a7c81dcc36"><path d="M 55.890625 129.097656 L 83 129.097656 L 83 180 L 55.890625 180 Z M 55.890625 129.097656 " clip-rule="nonzero"/></clipPath><clipPath id="5af4a949ac"><path d="M 57 160 L 84.390625 160 L 84.390625 212 L 57 212 Z M 57 160 " clip-rule="nonzero"/></clipPath></defs><g clip-path="url(#a7c81dcc36)"><path fill="#004aad" d="M 62.078125 129.195312 C 62.078125 129.195312 51.007812 142.976562 58.484375 153.386719 C 65.957031 163.792969 73.304688 171.589844 74.738281 173.246094 C 76.167969 174.902344 80.164062 179.335938 80.734375 180 C 83.527344 176.511719 84.613281 166.277344 77.261719 160.519531 C 69.910156 154.765625 54.304688 144.421875 62.078125 129.195312 Z M 62.078125 129.195312 " fill-opacity="1" fill-rule="nonzero"/></g><g clip-path="url(#5af4a949ac)"><path fill="#004aad" d="M 78.207031 211.015625 C 78.207031 211.015625 89.277344 197.234375 81.804688 186.824219 C 74.328125 176.417969 66.984375 168.625 65.550781 166.964844 C 64.117188 165.308594 60.125 160.875 59.554688 160.210938 C 56.761719 163.699219 55.671875 173.9375 63.023438 179.691406 C 70.375 185.445312 85.980469 195.789062 78.207031 211.015625 Z M 78.207031 211.015625 " fill-opacity="1" fill-rule="nonzero"/></g><path fill="#004aad" d="M 81.410156 145.113281 C 81.410156 145.566406 81.367188 146.015625 81.277344 146.457031 C 81.1875 146.902344 81.054688 147.332031 80.882812 147.753906 C 80.707031 148.171875 80.492188 148.566406 80.238281 148.945312 C 79.984375 149.320312 79.695312 149.667969 79.375 149.988281 C 79.050781 150.308594 78.699219 150.59375 78.320312 150.84375 C 77.941406 151.097656 77.539062 151.308594 77.117188 151.480469 C 76.695312 151.65625 76.261719 151.785156 75.8125 151.875 C 75.363281 151.960938 74.914062 152.007812 74.457031 152.007812 C 74 152.007812 73.546875 151.960938 73.097656 151.875 C 72.652344 151.785156 72.214844 151.65625 71.792969 151.480469 C 71.371094 151.308594 70.972656 151.097656 70.589844 150.84375 C 70.210938 150.59375 69.859375 150.308594 69.539062 149.988281 C 69.214844 149.667969 68.925781 149.320312 68.671875 148.945312 C 68.417969 148.566406 68.203125 148.171875 68.03125 147.753906 C 67.855469 147.332031 67.722656 146.902344 67.632812 146.457031 C 67.546875 146.015625 67.5 145.566406 67.5 145.113281 C 67.5 144.660156 67.546875 144.214844 67.632812 143.769531 C 67.722656 143.324219 67.855469 142.894531 68.03125 142.476562 C 68.203125 142.058594 68.417969 141.660156 68.671875 141.285156 C 68.925781 140.910156 69.214844 140.558594 69.539062 140.242188 C 69.859375 139.921875 70.210938 139.632812 70.589844 139.382812 C 70.972656 139.132812 71.371094 138.917969 71.792969 138.746094 C 72.214844 138.574219 72.652344 138.441406 73.097656 138.355469 C 73.546875 138.265625 74 138.222656 74.457031 138.222656 C 74.914062 138.222656 75.363281 138.265625 75.8125 138.355469 C 76.261719 138.441406 76.695312 138.574219 77.117188 138.746094 C 77.539062 138.917969 77.941406 139.132812 78.320312 139.382812 C 78.699219 139.632812 79.050781 139.921875 79.375 140.242188 C 79.695312 140.558594 79.984375 140.910156 80.238281 141.285156 C 80.492188 141.660156 80.707031 142.058594 80.882812 142.476562 C 81.054688 142.894531 81.1875 143.324219 81.277344 143.769531 C 81.367188 144.214844 81.410156 144.660156 81.410156 145.113281 Z M 81.410156 145.113281 " fill-opacity="1" fill-rule="nonzero"/><path fill="#004aad" d="M 74.753906 199.816406 C 74.753906 196.875 72.339844 194.488281 69.375 194.488281 C 66.410156 194.488281 64 196.875 64 199.816406 C 64 202.550781 66.097656 204.78125 68.777344 205.082031 L 68.777344 207.308594 C 68.777344 209.789062 66.738281 211.804688 64.242188 211.804688 C 61.960938 211.804688 60.105469 209.964844 60.105469 207.707031 L 60.105469 188.554688 C 61.320312 188.28125 62.230469 187.210938 62.230469 185.925781 C 62.230469 184.433594 61.011719 183.222656 59.507812 183.222656 C 58.003906 183.222656 56.78125 184.433594 56.78125 185.925781 C 56.78125 187.210938 57.691406 188.28125 58.90625 188.554688 L 58.90625 207.707031 C 58.90625 210.625 61.300781 212.996094 64.246094 212.996094 C 67.40625 212.996094 69.984375 210.445312 69.984375 207.308594 L 69.984375 205.082031 C 72.65625 204.78125 74.753906 202.550781 74.753906 199.816406 Z M 69.375 203.949219 C 67.074219 203.949219 65.199219 202.097656 65.199219 199.816406 C 65.199219 197.535156 67.070312 195.679688 69.375 195.679688 C 71.679688 195.679688 73.550781 197.535156 73.550781 199.816406 C 73.546875 202.097656 71.675781 203.949219 69.375 203.949219 Z M 69.375 203.949219 " fill-opacity="1" fill-rule="nonzero"/><path fill="#004aad" d="M 69.375 197.199219 C 67.917969 197.199219 66.734375 198.371094 66.734375 199.816406 C 66.734375 201.261719 67.917969 202.433594 69.375 202.433594 C 70.835938 202.433594 72.015625 201.261719 72.015625 199.816406 C 72.015625 198.371094 70.832031 197.199219 69.375 197.199219 Z M 69.375 197.199219 " fill-opacity="1" fill-rule="nonzero"/><g fill="#004aad" fill-opacity="1"><g transform="translate(92.318252, 175.969925)"><g><path d="M 9.046875 -3.9375 C 9.046875 -3.375 8.9375 -2.84375 8.71875 -2.34375 C 8.507812 -1.84375 8.222656 -1.40625 7.859375 -1.03125 C 7.492188 -0.664062 7.0625 -0.375 6.5625 -0.15625 C 6.070312 0.0507812 5.546875 0.15625 4.984375 0.15625 C 4.421875 0.15625 3.894531 0.0507812 3.40625 -0.15625 C 2.914062 -0.375 2.484375 -0.664062 2.109375 -1.03125 C 1.742188 -1.40625 1.453125 -1.84375 1.234375 -2.34375 C 1.023438 -2.84375 0.921875 -3.375 0.921875 -3.9375 L 0.921875 -11.125 L 2.5625 -11.125 L 2.5625 -3.9375 C 2.5625 -3.601562 2.625 -3.285156 2.75 -2.984375 C 2.875 -2.679688 3.046875 -2.410156 3.265625 -2.171875 C 3.484375 -1.929688 3.738281 -1.742188 4.03125 -1.609375 C 4.332031 -1.472656 4.648438 -1.40625 4.984375 -1.40625 C 5.316406 -1.40625 5.628906 -1.472656 5.921875 -1.609375 C 6.222656 -1.742188 6.484375 -1.929688 6.703125 -2.171875 C 6.921875 -2.410156 7.09375 -2.679688 7.21875 -2.984375 C 7.34375 -3.285156 7.40625 -3.601562 7.40625 -3.9375 L 7.40625 -11.125 L 9.046875 -11.125 Z M 9.046875 -3.9375 "/></g></g></g><g fill="#004aad" fill-opacity="1"><g transform="translate(104.612965, 175.969925)"><g><path d="M 3.09375 -9.640625 L 0.078125 -9.640625 L 0.078125 -11.125 L 7.75 -11.125 L 7.75 -9.640625 L 4.71875 -9.640625 L 4.71875 0 L 3.09375 0 Z M 3.09375 -9.640625 "/></g></g></g><g fill="#004aad" fill-opacity="1"><g transform="translate(115.15156, 175.969925)"><g><path d="M 8.75 -11.125 L 10.390625 -11.125 L 10.390625 0 L 8.75 0 L 8.75 -5.09375 L 2.53125 -5.09375 L 2.53125 0 L 0.875 0 L 0.875 -11.125 L 2.53125 -11.125 L 2.53125 -6.625 L 8.75 -6.625 Z M 8.75 -11.125 "/></g></g></g><g fill="#004aad" fill-opacity="1"><g transform="translate(128.841766, 175.969925)"><g><path d="M 3.890625 -9.765625 L 3.890625 -1.34375 L 4.703125 -1.34375 L 4.703125 0 L 1.421875 0 L 1.421875 -1.34375 L 2.265625 -1.34375 L 2.265625 -9.765625 L 1.421875 -9.765625 L 1.421875 -11.125 L 4.703125 -11.125 L 4.703125 -9.765625 Z M 3.890625 -9.765625 "/></g></g></g><g fill="#004aad" fill-opacity="1"><g transform="translate(137.357686, 175.969925)"><g><path d="M 5.34375 -5.96875 L 10.703125 0.015625 L 8.484375 0.015625 L 4.265625 -4.875 L 2.515625 -3.125 L 2.515625 0 L 0.875 0 L 0.875 -11.125 L 2.515625 -11.125 L 2.515625 -5.140625 L 3.734375 -6.453125 L 8.359375 -11.125 L 10.515625 -11.125 Z M 5.34375 -5.96875 "/></g></g></g><g fill="#004aad" fill-opacity="1"><g transform="translate(150.687266, 175.969925)"><g><path d="M 1.953125 0 L 0.171875 0 L 4.796875 -11.125 L 6.609375 -11.125 L 11.234375 0 L 9.453125 0 L 8 -3.484375 L 3.40625 -3.484375 Z M 4.03125 -4.984375 L 7.375 -4.984375 L 5.703125 -9 Z M 4.03125 -4.984375 "/></g></g></g><g fill="#004aad" fill-opacity="1"><g transform="translate(164.518588, 175.969925)"><g/></g></g><g fill="#004aad" fill-opacity="1"><g transform="translate(170.964799, 175.969925)"><g><path d="M 0.921875 0 L 0.921875 -11.125 L 2.578125 -11.125 L 2.578125 -1.515625 L 7.71875 -1.515625 L 7.71875 0 Z M 0.921875 0 "/></g></g></g><g fill="#004aad" fill-opacity="1"><g transform="translate(181.362276, 175.969925)"><g><path d="M 1.953125 0 L 0.171875 0 L 4.796875 -11.125 L 6.609375 -11.125 L 11.234375 0 L 9.453125 0 L 8 -3.484375 L 3.40625 -3.484375 Z M 4.03125 -4.984375 L 7.375 -4.984375 L 5.703125 -9 Z M 4.03125 -4.984375 "/></g></g></g><g fill="#004aad" fill-opacity="1"><g transform="translate(195.193604, 175.969925)"><g><path d="M 8.75 -3.109375 C 8.75 -2.679688 8.664062 -2.273438 8.5 -1.890625 C 8.34375 -1.515625 8.125 -1.1875 7.84375 -0.90625 C 7.5625 -0.625 7.226562 -0.398438 6.84375 -0.234375 C 6.46875 -0.078125 6.0625 0 5.625 0 L 0.875 0 L 0.875 -11.125 L 5.21875 -11.125 C 5.59375 -11.125 5.945312 -11.050781 6.28125 -10.90625 C 6.625 -10.757812 6.921875 -10.5625 7.171875 -10.3125 C 7.421875 -10.0625 7.617188 -9.765625 7.765625 -9.421875 C 7.910156 -9.078125 7.984375 -8.710938 7.984375 -8.328125 C 7.984375 -7.847656 7.90625 -7.410156 7.75 -7.015625 C 7.59375 -6.628906 7.335938 -6.300781 6.984375 -6.03125 C 7.578125 -5.800781 8.019531 -5.421875 8.3125 -4.890625 C 8.601562 -4.367188 8.75 -3.773438 8.75 -3.109375 Z M 2.515625 -6.625 C 2.929688 -6.613281 3.316406 -6.609375 3.671875 -6.609375 L 5.234375 -6.609375 C 5.628906 -6.609375 5.960938 -6.753906 6.234375 -7.046875 C 6.515625 -7.347656 6.65625 -7.707031 6.65625 -8.125 C 6.65625 -8.550781 6.515625 -8.910156 6.234375 -9.203125 C 5.960938 -9.492188 5.628906 -9.640625 5.234375 -9.640625 L 2.515625 -9.640625 Z M 2.515625 -1.515625 C 2.585938 -1.503906 2.75 -1.5 3 -1.5 L 5.625 -1.5 C 5.851562 -1.5 6.0625 -1.546875 6.25 -1.640625 C 6.445312 -1.734375 6.617188 -1.863281 6.765625 -2.03125 C 6.910156 -2.195312 7.023438 -2.390625 7.109375 -2.609375 C 7.191406 -2.828125 7.234375 -3.0625 7.234375 -3.3125 C 7.234375 -3.5625 7.191406 -3.789062 7.109375 -4 C 7.023438 -4.21875 6.910156 -4.40625 6.765625 -4.5625 C 6.617188 -4.726562 6.445312 -4.859375 6.25 -4.953125 C 6.0625 -5.046875 5.851562 -5.09375 5.625 -5.09375 L 2.515625 -5.09375 Z M 2.515625 -1.515625 "/></g></g></g><g fill="#004aad" fill-opacity="1"><g transform="translate(206.955223, 175.969925)"><g><path d="M 6.046875 -11.28125 C 6.796875 -11.28125 7.503906 -11.128906 8.171875 -10.828125 C 8.835938 -10.523438 9.421875 -10.113281 9.921875 -9.59375 C 10.421875 -9.070312 10.816406 -8.460938 11.109375 -7.765625 C 11.398438 -7.078125 11.546875 -6.34375 11.546875 -5.5625 C 11.546875 -4.78125 11.398438 -4.046875 11.109375 -3.359375 C 10.816406 -2.671875 10.414062 -2.066406 9.90625 -1.546875 C 9.40625 -1.023438 8.820312 -0.613281 8.15625 -0.3125 C 7.488281 -0.0078125 6.78125 0.140625 6.03125 0.140625 C 5.269531 0.140625 4.554688 -0.0078125 3.890625 -0.3125 C 3.222656 -0.613281 2.640625 -1.023438 2.140625 -1.546875 C 1.640625 -2.066406 1.242188 -2.671875 0.953125 -3.359375 C 0.671875 -4.046875 0.53125 -4.78125 0.53125 -5.5625 C 0.53125 -6.34375 0.671875 -7.078125 0.953125 -7.765625 C 1.242188 -8.460938 1.640625 -9.070312 2.140625 -9.59375 C 2.648438 -10.113281 3.238281 -10.523438 3.90625 -10.828125 C 4.570312 -11.128906 5.285156 -11.28125 6.046875 -11.28125 Z M 6.046875 -1.40625 C 6.578125 -1.40625 7.070312 -1.515625 7.53125 -1.734375 C 8 -1.953125 8.40625 -2.25 8.75 -2.625 C 9.09375 -3 9.363281 -3.4375 9.5625 -3.9375 C 9.769531 -4.445312 9.875 -4.988281 9.875 -5.5625 C 9.875 -6.144531 9.769531 -6.6875 9.5625 -7.1875 C 9.363281 -7.6875 9.09375 -8.125 8.75 -8.5 C 8.40625 -8.875 8 -9.164062 7.53125 -9.375 C 7.070312 -9.59375 6.578125 -9.703125 6.046875 -9.703125 C 5.503906 -9.703125 5 -9.59375 4.53125 -9.375 C 4.070312 -9.164062 3.671875 -8.875 3.328125 -8.5 C 2.984375 -8.125 2.707031 -7.6875 2.5 -7.1875 C 2.300781 -6.6875 2.203125 -6.144531 2.203125 -5.5625 C 2.203125 -4.988281 2.300781 -4.445312 2.5 -3.9375 C 2.707031 -3.4375 2.984375 -3 3.328125 -2.625 C 3.671875 -2.25 4.070312 -1.953125 4.53125 -1.734375 C 5 -1.515625 5.503906 -1.40625 6.046875 -1.40625 Z M 6.046875 -1.40625 "/></g></g></g><g fill="#004aad" fill-opacity="1"><g transform="translate(221.335341, 175.969925)"><g><path d="M 10.0625 0 L 8 0 L 4.5 -4.796875 L 2.5625 -4.796875 L 2.5625 0 L 0.90625 0 L 0.90625 -11.125 L 5.421875 -11.125 C 5.867188 -11.125 6.285156 -11.039062 6.671875 -10.875 C 7.066406 -10.707031 7.40625 -10.476562 7.6875 -10.1875 C 7.976562 -9.90625 8.207031 -9.570312 8.375 -9.1875 C 8.539062 -8.8125 8.625 -8.40625 8.625 -7.96875 C 8.625 -7.601562 8.566406 -7.257812 8.453125 -6.9375 C 8.335938 -6.613281 8.175781 -6.316406 7.96875 -6.046875 C 7.769531 -5.785156 7.53125 -5.554688 7.25 -5.359375 C 6.96875 -5.171875 6.660156 -5.03125 6.328125 -4.9375 Z M 5.421875 -6.34375 C 5.640625 -6.34375 5.847656 -6.382812 6.046875 -6.46875 C 6.253906 -6.5625 6.425781 -6.679688 6.5625 -6.828125 C 6.707031 -6.972656 6.820312 -7.144531 6.90625 -7.34375 C 6.988281 -7.550781 7.03125 -7.769531 7.03125 -8 C 7.03125 -8.226562 6.988281 -8.441406 6.90625 -8.640625 C 6.820312 -8.835938 6.707031 -9.007812 6.5625 -9.15625 C 6.425781 -9.3125 6.253906 -9.429688 6.046875 -9.515625 C 5.847656 -9.609375 5.640625 -9.65625 5.421875 -9.65625 L 2.5625 -9.65625 L 2.5625 -6.328125 Z M 5.421875 -6.34375 "/></g></g></g><g fill="#004aad" fill-opacity="1"><g transform="translate(233.975019, 175.969925)"><g><path d="M 1.953125 0 L 0.171875 0 L 4.796875 -11.125 L 6.609375 -11.125 L 11.234375 0 L 9.453125 0 L 8 -3.484375 L 3.40625 -3.484375 Z M 4.03125 -4.984375 L 7.375 -4.984375 L 5.703125 -9 Z M 4.03125 -4.984375 "/></g></g></g><g fill="#004aad" fill-opacity="1"><g transform="translate(247.806347, 175.969925)"><g><path d="M 3.09375 -9.640625 L 0.078125 -9.640625 L 0.078125 -11.125 L 7.75 -11.125 L 7.75 -9.640625 L 4.71875 -9.640625 L 4.71875 0 L 3.09375 0 Z M 3.09375 -9.640625 "/></g></g></g><g fill="#004aad" fill-opacity="1"><g transform="translate(258.344936, 175.969925)"><g><path d="M 6.046875 -11.28125 C 6.796875 -11.28125 7.503906 -11.128906 8.171875 -10.828125 C 8.835938 -10.523438 9.421875 -10.113281 9.921875 -9.59375 C 10.421875 -9.070312 10.816406 -8.460938 11.109375 -7.765625 C 11.398438 -7.078125 11.546875 -6.34375 11.546875 -5.5625 C 11.546875 -4.78125 11.398438 -4.046875 11.109375 -3.359375 C 10.816406 -2.671875 10.414062 -2.066406 9.90625 -1.546875 C 9.40625 -1.023438 8.820312 -0.613281 8.15625 -0.3125 C 7.488281 -0.0078125 6.78125 0.140625 6.03125 0.140625 C 5.269531 0.140625 4.554688 -0.0078125 3.890625 -0.3125 C 3.222656 -0.613281 2.640625 -1.023438 2.140625 -1.546875 C 1.640625 -2.066406 1.242188 -2.671875 0.953125 -3.359375 C 0.671875 -4.046875 0.53125 -4.78125 0.53125 -5.5625 C 0.53125 -6.34375 0.671875 -7.078125 0.953125 -7.765625 C 1.242188 -8.460938 1.640625 -9.070312 2.140625 -9.59375 C 2.648438 -10.113281 3.238281 -10.523438 3.90625 -10.828125 C 4.570312 -11.128906 5.285156 -11.28125 6.046875 -11.28125 Z M 6.046875 -1.40625 C 6.578125 -1.40625 7.070312 -1.515625 7.53125 -1.734375 C 8 -1.953125 8.40625 -2.25 8.75 -2.625 C 9.09375 -3 9.363281 -3.4375 9.5625 -3.9375 C 9.769531 -4.445312 9.875 -4.988281 9.875 -5.5625 C 9.875 -6.144531 9.769531 -6.6875 9.5625 -7.1875 C 9.363281 -7.6875 9.09375 -8.125 8.75 -8.5 C 8.40625 -8.875 8 -9.164062 7.53125 -9.375 C 7.070312 -9.59375 6.578125 -9.703125 6.046875 -9.703125 C 5.503906 -9.703125 5 -9.59375 4.53125 -9.375 C 4.070312 -9.164062 3.671875 -8.875 3.328125 -8.5 C 2.984375 -8.125 2.707031 -7.6875 2.5 -7.1875 C 2.300781 -6.6875 2.203125 -6.144531 2.203125 -5.5625 C 2.203125 -4.988281 2.300781 -4.445312 2.5 -3.9375 C 2.707031 -3.4375 2.984375 -3 3.328125 -2.625 C 3.671875 -2.25 4.070312 -1.953125 4.53125 -1.734375 C 5 -1.515625 5.503906 -1.40625 6.046875 -1.40625 Z M 6.046875 -1.40625 "/></g></g></g><g fill="#004aad" fill-opacity="1"><g transform="translate(272.725054, 175.969925)"><g><path d="M 10.0625 0 L 8 0 L 4.5 -4.796875 L 2.5625 -4.796875 L 2.5625 0 L 0.90625 0 L 0.90625 -11.125 L 5.421875 -11.125 C 5.867188 -11.125 6.285156 -11.039062 6.671875 -10.875 C 7.066406 -10.707031 7.40625 -10.476562 7.6875 -10.1875 C 7.976562 -9.90625 8.207031 -9.570312 8.375 -9.1875 C 8.539062 -8.8125 8.625 -8.40625 8.625 -7.96875 C 8.625 -7.601562 8.566406 -7.257812 8.453125 -6.9375 C 8.335938 -6.613281 8.175781 -6.316406 7.96875 -6.046875 C 7.769531 -5.785156 7.53125 -5.554688 7.25 -5.359375 C 6.96875 -5.171875 6.660156 -5.03125 6.328125 -4.9375 Z M 5.421875 -6.34375 C 5.640625 -6.34375 5.847656 -6.382812 6.046875 -6.46875 C 6.253906 -6.5625 6.425781 -6.679688 6.5625 -6.828125 C 6.707031 -6.972656 6.820312 -7.144531 6.90625 -7.34375 C 6.988281 -7.550781 7.03125 -7.769531 7.03125 -8 C 7.03125 -8.226562 6.988281 -8.441406 6.90625 -8.640625 C 6.820312 -8.835938 6.707031 -9.007812 6.5625 -9.15625 C 6.425781 -9.3125 6.253906 -9.429688 6.046875 -9.515625 C 5.847656 -9.609375 5.640625 -9.65625 5.421875 -9.65625 L 2.5625 -9.65625 L 2.5625 -6.328125 Z M 5.421875 -6.34375 "/></g></g></g><g fill="#004aad" fill-opacity="1"><g transform="translate(285.364732, 175.969925)"><g><path d="M 3.890625 -9.765625 L 3.890625 -1.34375 L 4.703125 -1.34375 L 4.703125 0 L 1.421875 0 L 1.421875 -1.34375 L 2.265625 -1.34375 L 2.265625 -9.765625 L 1.421875 -9.765625 L 1.421875 -11.125 L 4.703125 -11.125 L 4.703125 -9.765625 Z M 3.890625 -9.765625 "/></g></g></g><g fill="#004aad" fill-opacity="1"><g transform="translate(293.880646, 175.969925)"><g><path d="M 7.671875 -11.125 L 7.671875 -9.640625 L 2.515625 -9.640625 L 2.515625 -6.625 L 7.109375 -6.625 L 7.109375 -5.09375 L 2.515625 -5.09375 L 2.515625 -1.515625 L 7.671875 -1.515625 L 7.671875 0 L 0.875 0 L 0.875 -11.125 Z M 7.671875 -11.125 "/></g></g></g><g fill="#004aad" fill-opacity="1"><g transform="translate(304.842598, 175.969925)"><g><path d="M 8.296875 -3.125 C 8.296875 -2.65625 8.203125 -2.21875 8.015625 -1.8125 C 7.828125 -1.40625 7.550781 -1.050781 7.1875 -0.75 C 6.46875 -0.144531 5.539062 0.15625 4.40625 0.15625 C 3.53125 0.15625 2.734375 -0.0195312 2.015625 -0.375 C 1.304688 -0.738281 0.785156 -1.222656 0.453125 -1.828125 L 1.84375 -2.5625 C 2.0625 -2.1875 2.394531 -1.894531 2.84375 -1.6875 C 3.300781 -1.476562 3.820312 -1.375 4.40625 -1.375 C 5.925781 -1.375 6.6875 -1.957031 6.6875 -3.125 C 6.6875 -3.34375 6.644531 -3.53125 6.5625 -3.6875 C 6.488281 -3.84375 6.375 -3.988281 6.21875 -4.125 C 5.832031 -4.4375 5.15625 -4.71875 4.1875 -4.96875 C 3.601562 -5.113281 3.109375 -5.273438 2.703125 -5.453125 C 2.296875 -5.628906 1.953125 -5.84375 1.671875 -6.09375 C 1.015625 -6.625 0.6875 -7.328125 0.6875 -8.203125 C 0.6875 -8.640625 0.769531 -9.050781 0.9375 -9.4375 C 1.113281 -9.820312 1.359375 -10.15625 1.671875 -10.4375 C 2.003906 -10.71875 2.382812 -10.925781 2.8125 -11.0625 C 3.25 -11.207031 3.726562 -11.28125 4.25 -11.28125 C 5.007812 -11.28125 5.710938 -11.132812 6.359375 -10.84375 C 7.003906 -10.550781 7.492188 -10.132812 7.828125 -9.59375 L 6.5625 -8.8125 C 6.257812 -9.175781 5.90625 -9.4375 5.5 -9.59375 C 5.101562 -9.75 4.6875 -9.828125 4.25 -9.828125 C 3.9375 -9.828125 3.648438 -9.769531 3.390625 -9.65625 C 3.128906 -9.550781 2.910156 -9.425781 2.734375 -9.28125 C 2.585938 -9.15625 2.476562 -9 2.40625 -8.8125 C 2.34375 -8.632812 2.3125 -8.441406 2.3125 -8.234375 C 2.3125 -8.097656 2.332031 -7.957031 2.375 -7.8125 C 2.414062 -7.675781 2.515625 -7.53125 2.671875 -7.375 C 2.828125 -7.226562 3.054688 -7.082031 3.359375 -6.9375 C 3.660156 -6.800781 4.070312 -6.664062 4.59375 -6.53125 C 5.21875 -6.375 5.742188 -6.203125 6.171875 -6.015625 C 6.609375 -5.828125 6.972656 -5.609375 7.265625 -5.359375 C 7.953125 -4.796875 8.296875 -4.050781 8.296875 -3.125 Z M 8.296875 -3.125 "/></g></g></g><g fill="#004aad" fill-opacity="1"><g transform="translate(151.978399, 191.249987)"><g><path d="M 1.734375 -2.234375 L 1.734375 0 L 0.796875 0 L 0.796875 -6.890625 L 3.140625 -6.890625 C 4.109375 -6.890625 4.800781 -6.710938 5.21875 -6.359375 C 5.644531 -6.015625 5.859375 -5.441406 5.859375 -4.640625 C 5.859375 -3.828125 5.640625 -3.222656 5.203125 -2.828125 C 4.765625 -2.429688 4.085938 -2.234375 3.171875 -2.234375 Z M 4.921875 -4.640625 C 4.921875 -5.148438 4.78125 -5.507812 4.5 -5.71875 C 4.226562 -5.9375 3.773438 -6.046875 3.140625 -6.046875 L 1.734375 -6.046875 L 1.734375 -3.0625 L 3.140625 -3.0625 C 3.773438 -3.0625 4.226562 -3.1875 4.5 -3.4375 C 4.78125 -3.6875 4.921875 -4.085938 4.921875 -4.640625 Z M 4.921875 -4.640625 "/></g></g></g><g fill="#004aad" fill-opacity="1"><g transform="translate(163.666994, 191.249987)"><g><path d="M 2.671875 0 L 0.09375 -6.890625 L 1.125 -6.890625 L 2.703125 -2.53125 C 2.765625 -2.34375 2.835938 -2.109375 2.921875 -1.828125 C 3.015625 -1.546875 3.125 -1.179688 3.25 -0.734375 C 3.34375 -1.085938 3.429688 -1.421875 3.515625 -1.734375 C 3.609375 -2.054688 3.691406 -2.320312 3.765625 -2.53125 L 5.34375 -6.890625 L 6.359375 -6.890625 L 3.765625 0 Z M 2.671875 0 "/></g></g></g><g fill="#004aad" fill-opacity="1"><g transform="translate(175.608413, 191.249987)"><g><path d="M 5.671875 -6.890625 L 5.671875 -6.046875 L 3.390625 -6.046875 L 3.390625 0 L 2.453125 0 L 2.453125 -6.046875 L 0.171875 -6.046875 L 0.171875 -6.890625 Z M 5.671875 -6.890625 "/></g></g></g><g fill="#004aad" fill-opacity="1"><g transform="translate(186.945264, 191.249987)"><g/></g></g><g fill="#004aad" fill-opacity="1"><g transform="translate(194.324906, 191.249987)"><g><path d="M 5.015625 -0.875 L 5.015625 0 L 0.796875 0 L 0.796875 -6.890625 L 1.734375 -6.890625 L 1.734375 -0.875 Z M 5.015625 -0.875 "/></g></g></g><g fill="#004aad" fill-opacity="1"><g transform="translate(205.013207, 191.249987)"><g><path d="M 5.671875 -6.890625 L 5.671875 -6.046875 L 3.390625 -6.046875 L 3.390625 0 L 2.453125 0 L 2.453125 -6.046875 L 0.171875 -6.046875 L 0.171875 -6.890625 Z M 5.671875 -6.890625 "/></g></g></g><g fill="#004aad" fill-opacity="1"><g transform="translate(216.350055, 191.249987)"><g><path d="M 2.796875 0 L 0.796875 0 L 0.796875 -6.890625 L 2.796875 -6.890625 C 3.492188 -6.890625 4.050781 -6.832031 4.46875 -6.71875 C 4.882812 -6.601562 5.21875 -6.414062 5.46875 -6.15625 C 5.71875 -5.90625 5.898438 -5.5625 6.015625 -5.125 C 6.128906 -4.6875 6.1875 -4.128906 6.1875 -3.453125 C 6.1875 -2.253906 5.914062 -1.378906 5.375 -0.828125 C 4.84375 -0.273438 3.984375 0 2.796875 0 Z M 4.765625 -5.484375 C 4.597656 -5.679688 4.363281 -5.820312 4.0625 -5.90625 C 3.757812 -6 3.335938 -6.046875 2.796875 -6.046875 L 1.734375 -6.046875 L 1.734375 -0.875 L 2.796875 -0.875 C 3.703125 -0.875 4.332031 -1.066406 4.6875 -1.453125 C 5.039062 -1.847656 5.21875 -2.515625 5.21875 -3.453125 C 5.21875 -3.972656 5.179688 -4.394531 5.109375 -4.71875 C 5.035156 -5.039062 4.921875 -5.296875 4.765625 -5.484375 Z M 4.765625 -5.484375 "/></g></g></g></svg>