<svg xmlns="http://www.w3.org/2000/svg" xmlns:xlink="http://www.w3.org/1999/xlink" width="556" zoomAndPan="magnify" viewBox="0 0 416.88 234.749995" height="313" preserveAspectRatio="xMidYMid meet" version="1.0"><defs><g/><clipPath id="bd63f76e81"><path d="M 75.472656 75.015625 L 103 75.015625 L 103 126 L 75.472656 126 Z M 75.472656 75.015625 " clip-rule="nonzero"/></clipPath><clipPath id="a70ad10763"><path d="M 77 106 L 103.945312 106 L 103.945312 157 L 77 157 Z M 77 106 " clip-rule="nonzero"/></clipPath><clipPath id="2202b1c3d4"><path d="M 76 129 L 95 129 L 95 158.929688 L 76 158.929688 Z M 76 129 " clip-rule="nonzero"/></clipPath></defs><g clip-path="url(#bd63f76e81)"><path fill="#004aad" d="M 81.652344 75.113281 C 81.652344 75.113281 70.597656 88.882812 78.0625 99.28125 C 85.527344 109.675781 92.867188 117.464844 94.296875 119.117188 C 95.730469 120.773438 99.71875 125.203125 100.289062 125.867188 C 103.078125 122.378906 104.167969 112.15625 96.820312 106.40625 C 89.476562 100.660156 73.886719 90.328125 81.652344 75.113281 Z M 81.652344 75.113281 " fill-opacity="1" fill-rule="nonzero"/></g><g clip-path="url(#a70ad10763)"><path fill="#004aad" d="M 97.765625 156.847656 C 97.765625 156.847656 108.824219 143.082031 101.359375 132.683594 C 93.890625 122.289062 86.554688 114.5 85.121094 112.847656 C 83.691406 111.191406 79.699219 106.761719 79.132812 106.097656 C 76.339844 109.585938 75.253906 119.808594 82.597656 125.554688 C 89.941406 131.304688 105.53125 141.636719 97.765625 156.847656 Z M 97.765625 156.847656 " fill-opacity="1" fill-rule="nonzero"/></g><path fill="#004aad" d="M 100.964844 91.015625 C 100.964844 91.46875 100.921875 91.917969 100.832031 92.359375 C 100.742188 92.804688 100.609375 93.234375 100.4375 93.652344 C 100.261719 94.070312 100.046875 94.464844 99.792969 94.84375 C 99.539062 95.21875 99.253906 95.566406 98.929688 95.886719 C 98.605469 96.207031 98.257812 96.492188 97.878906 96.742188 C 97.496094 96.992188 97.097656 97.207031 96.675781 97.378906 C 96.253906 97.550781 95.820312 97.683594 95.371094 97.769531 C 94.925781 97.859375 94.472656 97.902344 94.015625 97.902344 C 93.5625 97.902344 93.109375 97.859375 92.660156 97.769531 C 92.214844 97.683594 91.78125 97.550781 91.359375 97.378906 C 90.9375 97.207031 90.535156 96.992188 90.15625 96.742188 C 89.777344 96.492188 89.425781 96.207031 89.105469 95.886719 C 88.78125 95.566406 88.496094 95.21875 88.242188 94.84375 C 87.988281 94.464844 87.773438 94.070312 87.597656 93.652344 C 87.425781 93.234375 87.292969 92.804688 87.203125 92.359375 C 87.113281 91.917969 87.070312 91.46875 87.070312 91.015625 C 87.070312 90.566406 87.113281 90.117188 87.203125 89.675781 C 87.292969 89.230469 87.425781 88.800781 87.597656 88.382812 C 87.773438 87.964844 87.988281 87.566406 88.242188 87.191406 C 88.496094 86.816406 88.78125 86.46875 89.105469 86.148438 C 89.425781 85.828125 89.777344 85.542969 90.15625 85.292969 C 90.535156 85.042969 90.9375 84.828125 91.359375 84.65625 C 91.78125 84.484375 92.214844 84.351562 92.660156 84.265625 C 93.109375 84.175781 93.5625 84.132812 94.015625 84.132812 C 94.472656 84.132812 94.925781 84.175781 95.371094 84.265625 C 95.820312 84.351562 96.253906 84.484375 96.675781 84.65625 C 97.097656 84.828125 97.496094 85.042969 97.878906 85.292969 C 98.257812 85.542969 98.605469 85.828125 98.929688 86.148438 C 99.253906 86.46875 99.539062 86.816406 99.792969 87.191406 C 100.046875 87.566406 100.261719 87.964844 100.4375 88.382812 C 100.609375 88.800781 100.742188 89.230469 100.832031 89.675781 C 100.921875 90.117188 100.964844 90.566406 100.964844 91.015625 Z M 100.964844 91.015625 " fill-opacity="1" fill-rule="nonzero"/><g clip-path="url(#2202b1c3d4)"><path fill="#004aad" d="M 94.3125 145.660156 C 94.3125 142.722656 91.90625 140.335938 88.941406 140.335938 C 85.980469 140.335938 83.570312 142.722656 83.570312 145.660156 C 83.570312 148.390625 85.667969 150.621094 88.34375 150.921875 L 88.34375 153.144531 C 88.34375 155.621094 86.308594 157.636719 83.8125 157.636719 C 81.539062 157.636719 79.683594 155.796875 79.683594 153.542969 L 79.683594 134.410156 C 80.894531 134.136719 81.804688 133.066406 81.804688 131.785156 C 81.804688 130.292969 80.585938 129.085938 79.085938 129.085938 C 77.582031 129.085938 76.363281 130.292969 76.363281 131.785156 C 76.363281 133.066406 77.273438 134.136719 78.484375 134.410156 L 78.484375 153.542969 C 78.484375 156.457031 80.878906 158.828125 83.816406 158.828125 C 86.976562 158.828125 89.550781 156.277344 89.550781 153.144531 L 89.550781 150.921875 C 92.21875 150.621094 94.3125 148.390625 94.3125 145.660156 Z M 88.941406 149.792969 C 86.644531 149.792969 84.773438 147.9375 84.773438 145.660156 C 84.773438 143.382812 86.640625 141.527344 88.941406 141.527344 C 91.246094 141.527344 93.113281 143.382812 93.113281 145.660156 C 93.113281 147.9375 91.242188 149.792969 88.941406 149.792969 Z M 88.941406 149.792969 " fill-opacity="1" fill-rule="nonzero"/></g><path fill="#004aad" d="M 88.941406 143.046875 C 87.484375 143.046875 86.304688 144.214844 86.304688 145.660156 C 86.304688 147.105469 87.484375 148.273438 88.941406 148.273438 C 90.398438 148.273438 91.582031 147.105469 91.582031 145.660156 C 91.582031 144.214844 90.398438 143.046875 88.941406 143.046875 Z M 88.941406 143.046875 " fill-opacity="1" fill-rule="nonzero"/><g fill="#004aad" fill-opacity="1"><g transform="translate(111.861104, 121.840174)"><g><path d="M 9.046875 -3.9375 C 9.046875 -3.375 8.9375 -2.84375 8.71875 -2.34375 C 8.507812 -1.84375 8.21875 -1.40625 7.84375 -1.03125 C 7.476562 -0.664062 7.050781 -0.375 6.5625 -0.15625 C 6.070312 0.0507812 5.546875 0.15625 4.984375 0.15625 C 4.421875 0.15625 3.894531 0.0507812 3.40625 -0.15625 C 2.914062 -0.375 2.484375 -0.664062 2.109375 -1.03125 C 1.742188 -1.40625 1.453125 -1.84375 1.234375 -2.34375 C 1.023438 -2.84375 0.921875 -3.375 0.921875 -3.9375 L 0.921875 -11.109375 L 2.546875 -11.109375 L 2.546875 -3.9375 C 2.546875 -3.601562 2.609375 -3.28125 2.734375 -2.96875 C 2.867188 -2.664062 3.046875 -2.394531 3.265625 -2.15625 C 3.484375 -1.925781 3.738281 -1.742188 4.03125 -1.609375 C 4.332031 -1.472656 4.648438 -1.40625 4.984375 -1.40625 C 5.316406 -1.40625 5.628906 -1.472656 5.921875 -1.609375 C 6.210938 -1.742188 6.46875 -1.925781 6.6875 -2.15625 C 6.90625 -2.394531 7.078125 -2.664062 7.203125 -2.96875 C 7.328125 -3.28125 7.390625 -3.601562 7.390625 -3.9375 L 7.390625 -11.109375 L 9.046875 -11.109375 Z M 9.046875 -3.9375 "/></g></g></g><g fill="#004aad" fill-opacity="1"><g transform="translate(124.142738, 121.840174)"><g><path d="M 3.09375 -9.640625 L 0.078125 -9.640625 L 0.078125 -11.109375 L 7.734375 -11.109375 L 7.734375 -9.640625 L 4.71875 -9.640625 L 4.71875 0 L 3.09375 0 Z M 3.09375 -9.640625 "/></g></g></g><g fill="#004aad" fill-opacity="1"><g transform="translate(134.670121, 121.840174)"><g><path d="M 8.75 -11.109375 L 10.375 -11.109375 L 10.375 0 L 8.75 0 L 8.75 -5.09375 L 2.515625 -5.09375 L 2.515625 0 L 0.875 0 L 0.875 -11.109375 L 2.515625 -11.109375 L 2.515625 -6.609375 L 8.75 -6.609375 Z M 8.75 -11.109375 "/></g></g></g><g fill="#004aad" fill-opacity="1"><g transform="translate(148.345763, 121.840174)"><g><path d="M 3.890625 -9.765625 L 3.890625 -1.34375 L 4.703125 -1.34375 L 4.703125 0 L 1.421875 0 L 1.421875 -1.34375 L 2.25 -1.34375 L 2.25 -9.765625 L 1.421875 -9.765625 L 1.421875 -11.109375 L 4.703125 -11.109375 L 4.703125 -9.765625 Z M 3.890625 -9.765625 "/></g></g></g><g fill="#004aad" fill-opacity="1"><g transform="translate(156.852624, 121.840174)"><g><path d="M 5.34375 -5.953125 L 10.6875 0.015625 L 8.484375 0.015625 L 4.265625 -4.875 L 2.5 -3.125 L 2.5 0 L 0.875 0 L 0.875 -11.109375 L 2.5 -11.109375 L 2.5 -5.140625 L 3.734375 -6.4375 L 8.359375 -11.109375 L 10.5 -11.109375 Z M 5.34375 -5.953125 "/></g></g></g><g fill="#004aad" fill-opacity="1"><g transform="translate(170.168023, 121.840174)"><g><path d="M 1.953125 0 L 0.171875 0 L 4.796875 -11.109375 L 6.59375 -11.109375 L 11.21875 0 L 9.453125 0 L 8 -3.484375 L 3.40625 -3.484375 Z M 4.03125 -4.984375 L 7.359375 -4.984375 L 5.703125 -9 Z M 4.03125 -4.984375 "/></g></g></g><g fill="#004aad" fill-opacity="1"><g transform="translate(183.984632, 121.840174)"><g/></g></g><g fill="#004aad" fill-opacity="1"><g transform="translate(190.423984, 121.840174)"><g><path d="M 0.921875 0 L 0.921875 -11.109375 L 2.5625 -11.109375 L 2.5625 -1.515625 L 7.703125 -1.515625 L 7.703125 0 Z M 0.921875 0 "/></g></g></g><g fill="#004aad" fill-opacity="1"><g transform="translate(200.810401, 121.840174)"><g><path d="M 1.953125 0 L 0.171875 0 L 4.796875 -11.109375 L 6.59375 -11.109375 L 11.21875 0 L 9.453125 0 L 8 -3.484375 L 3.40625 -3.484375 Z M 4.03125 -4.984375 L 7.359375 -4.984375 L 5.703125 -9 Z M 4.03125 -4.984375 "/></g></g></g><g fill="#004aad" fill-opacity="1"><g transform="translate(214.627015, 121.840174)"><g><path d="M 8.75 -3.109375 C 8.75 -2.671875 8.664062 -2.265625 8.5 -1.890625 C 8.34375 -1.515625 8.117188 -1.1875 7.828125 -0.90625 C 7.546875 -0.625 7.210938 -0.398438 6.828125 -0.234375 C 6.453125 -0.078125 6.050781 0 5.625 0 L 0.875 0 L 0.875 -11.109375 L 5.21875 -11.109375 C 5.59375 -11.109375 5.945312 -11.035156 6.28125 -10.890625 C 6.613281 -10.742188 6.90625 -10.546875 7.15625 -10.296875 C 7.40625 -10.046875 7.601562 -9.75 7.75 -9.40625 C 7.90625 -9.070312 7.984375 -8.710938 7.984375 -8.328125 C 7.984375 -7.835938 7.898438 -7.394531 7.734375 -7 C 7.578125 -6.613281 7.320312 -6.285156 6.96875 -6.015625 C 7.570312 -5.796875 8.019531 -5.421875 8.3125 -4.890625 C 8.601562 -4.367188 8.75 -3.773438 8.75 -3.109375 Z M 2.5 -6.609375 C 2.925781 -6.597656 3.316406 -6.59375 3.671875 -6.59375 L 5.234375 -6.59375 C 5.628906 -6.59375 5.960938 -6.738281 6.234375 -7.03125 C 6.503906 -7.332031 6.640625 -7.695312 6.640625 -8.125 C 6.640625 -8.550781 6.503906 -8.910156 6.234375 -9.203125 C 5.960938 -9.492188 5.628906 -9.640625 5.234375 -9.640625 L 2.5 -9.640625 Z M 2.5 -1.515625 C 2.582031 -1.503906 2.75 -1.5 3 -1.5 L 5.625 -1.5 C 5.84375 -1.5 6.046875 -1.546875 6.234375 -1.640625 C 6.429688 -1.734375 6.601562 -1.859375 6.75 -2.015625 C 6.894531 -2.179688 7.007812 -2.375 7.09375 -2.59375 C 7.175781 -2.820312 7.21875 -3.0625 7.21875 -3.3125 C 7.21875 -3.5625 7.175781 -3.789062 7.09375 -4 C 7.007812 -4.21875 6.894531 -4.40625 6.75 -4.5625 C 6.601562 -4.726562 6.429688 -4.859375 6.234375 -4.953125 C 6.046875 -5.046875 5.84375 -5.09375 5.625 -5.09375 L 2.5 -5.09375 Z M 2.5 -1.515625 "/></g></g></g><g fill="#004aad" fill-opacity="1"><g transform="translate(226.376121, 121.840174)"><g><path d="M 6.03125 -11.265625 C 6.78125 -11.265625 7.488281 -11.113281 8.15625 -10.8125 C 8.832031 -10.507812 9.414062 -10.097656 9.90625 -9.578125 C 10.40625 -9.066406 10.800781 -8.460938 11.09375 -7.765625 C 11.382812 -7.066406 11.53125 -6.332031 11.53125 -5.5625 C 11.53125 -4.78125 11.382812 -4.039062 11.09375 -3.34375 C 10.800781 -2.65625 10.40625 -2.050781 9.90625 -1.53125 C 9.40625 -1.019531 8.816406 -0.613281 8.140625 -0.3125 C 7.472656 -0.0078125 6.765625 0.140625 6.015625 0.140625 C 5.265625 0.140625 4.554688 -0.0078125 3.890625 -0.3125 C 3.222656 -0.613281 2.640625 -1.019531 2.140625 -1.53125 C 1.640625 -2.050781 1.242188 -2.65625 0.953125 -3.34375 C 0.671875 -4.039062 0.53125 -4.78125 0.53125 -5.5625 C 0.53125 -6.332031 0.671875 -7.066406 0.953125 -7.765625 C 1.242188 -8.460938 1.640625 -9.066406 2.140625 -9.578125 C 2.648438 -10.097656 3.238281 -10.507812 3.90625 -10.8125 C 4.570312 -11.113281 5.28125 -11.265625 6.03125 -11.265625 Z M 6.03125 -1.40625 C 6.5625 -1.40625 7.0625 -1.507812 7.53125 -1.71875 C 8 -1.9375 8.40625 -2.234375 8.75 -2.609375 C 9.09375 -2.992188 9.363281 -3.4375 9.5625 -3.9375 C 9.757812 -4.445312 9.859375 -4.988281 9.859375 -5.5625 C 9.859375 -6.132812 9.757812 -6.671875 9.5625 -7.171875 C 9.363281 -7.679688 9.09375 -8.125 8.75 -8.5 C 8.40625 -8.875 8 -9.164062 7.53125 -9.375 C 7.0625 -9.59375 6.5625 -9.703125 6.03125 -9.703125 C 5.5 -9.703125 5 -9.59375 4.53125 -9.375 C 4.070312 -9.164062 3.671875 -8.875 3.328125 -8.5 C 2.984375 -8.125 2.707031 -7.679688 2.5 -7.171875 C 2.289062 -6.671875 2.1875 -6.132812 2.1875 -5.5625 C 2.1875 -4.988281 2.289062 -4.445312 2.5 -3.9375 C 2.707031 -3.4375 2.984375 -2.992188 3.328125 -2.609375 C 3.671875 -2.234375 4.070312 -1.9375 4.53125 -1.71875 C 5 -1.507812 5.5 -1.40625 6.03125 -1.40625 Z M 6.03125 -1.40625 "/></g></g></g><g fill="#004aad" fill-opacity="1"><g transform="translate(240.740941, 121.840174)"><g><path d="M 10.046875 0 L 8 0 L 4.5 -4.796875 L 2.546875 -4.796875 L 2.546875 0 L 0.90625 0 L 0.90625 -11.109375 L 5.421875 -11.109375 C 5.859375 -11.109375 6.269531 -11.023438 6.65625 -10.859375 C 7.050781 -10.691406 7.394531 -10.46875 7.6875 -10.1875 C 7.976562 -9.90625 8.207031 -9.570312 8.375 -9.1875 C 8.539062 -8.8125 8.625 -8.40625 8.625 -7.96875 C 8.625 -7.59375 8.566406 -7.242188 8.453125 -6.921875 C 8.335938 -6.597656 8.175781 -6.304688 7.96875 -6.046875 C 7.757812 -5.785156 7.515625 -5.554688 7.234375 -5.359375 C 6.953125 -5.171875 6.644531 -5.03125 6.3125 -4.9375 Z M 5.421875 -6.328125 C 5.640625 -6.328125 5.847656 -6.367188 6.046875 -6.453125 C 6.242188 -6.546875 6.410156 -6.664062 6.546875 -6.8125 C 6.691406 -6.957031 6.804688 -7.128906 6.890625 -7.328125 C 6.972656 -7.535156 7.015625 -7.757812 7.015625 -8 C 7.015625 -8.226562 6.972656 -8.441406 6.890625 -8.640625 C 6.804688 -8.835938 6.691406 -9.007812 6.546875 -9.15625 C 6.410156 -9.3125 6.242188 -9.429688 6.046875 -9.515625 C 5.847656 -9.609375 5.640625 -9.65625 5.421875 -9.65625 L 2.546875 -9.65625 L 2.546875 -6.3125 Z M 5.421875 -6.328125 "/></g></g></g><g fill="#004aad" fill-opacity="1"><g transform="translate(253.367173, 121.840174)"><g><path d="M 1.953125 0 L 0.171875 0 L 4.796875 -11.109375 L 6.59375 -11.109375 L 11.21875 0 L 9.453125 0 L 8 -3.484375 L 3.40625 -3.484375 Z M 4.03125 -4.984375 L 7.359375 -4.984375 L 5.703125 -9 Z M 4.03125 -4.984375 "/></g></g></g><g fill="#004aad" fill-opacity="1"><g transform="translate(267.183786, 121.840174)"><g><path d="M 3.09375 -9.640625 L 0.078125 -9.640625 L 0.078125 -11.109375 L 7.734375 -11.109375 L 7.734375 -9.640625 L 4.71875 -9.640625 L 4.71875 0 L 3.09375 0 Z M 3.09375 -9.640625 "/></g></g></g><g fill="#004aad" fill-opacity="1"><g transform="translate(277.711164, 121.840174)"><g><path d="M 6.03125 -11.265625 C 6.78125 -11.265625 7.488281 -11.113281 8.15625 -10.8125 C 8.832031 -10.507812 9.414062 -10.097656 9.90625 -9.578125 C 10.40625 -9.066406 10.800781 -8.460938 11.09375 -7.765625 C 11.382812 -7.066406 11.53125 -6.332031 11.53125 -5.5625 C 11.53125 -4.78125 11.382812 -4.039062 11.09375 -3.34375 C 10.800781 -2.65625 10.40625 -2.050781 9.90625 -1.53125 C 9.40625 -1.019531 8.816406 -0.613281 8.140625 -0.3125 C 7.472656 -0.0078125 6.765625 0.140625 6.015625 0.140625 C 5.265625 0.140625 4.554688 -0.0078125 3.890625 -0.3125 C 3.222656 -0.613281 2.640625 -1.019531 2.140625 -1.53125 C 1.640625 -2.050781 1.242188 -2.65625 0.953125 -3.34375 C 0.671875 -4.039062 0.53125 -4.78125 0.53125 -5.5625 C 0.53125 -6.332031 0.671875 -7.066406 0.953125 -7.765625 C 1.242188 -8.460938 1.640625 -9.066406 2.140625 -9.578125 C 2.648438 -10.097656 3.238281 -10.507812 3.90625 -10.8125 C 4.570312 -11.113281 5.28125 -11.265625 6.03125 -11.265625 Z M 6.03125 -1.40625 C 6.5625 -1.40625 7.0625 -1.507812 7.53125 -1.71875 C 8 -1.9375 8.40625 -2.234375 8.75 -2.609375 C 9.09375 -2.992188 9.363281 -3.4375 9.5625 -3.9375 C 9.757812 -4.445312 9.859375 -4.988281 9.859375 -5.5625 C 9.859375 -6.132812 9.757812 -6.671875 9.5625 -7.171875 C 9.363281 -7.679688 9.09375 -8.125 8.75 -8.5 C 8.40625 -8.875 8 -9.164062 7.53125 -9.375 C 7.0625 -9.59375 6.5625 -9.703125 6.03125 -9.703125 C 5.5 -9.703125 5 -9.59375 4.53125 -9.375 C 4.070312 -9.164062 3.671875 -8.875 3.328125 -8.5 C 2.984375 -8.125 2.707031 -7.679688 2.5 -7.171875 C 2.289062 -6.671875 2.1875 -6.132812 2.1875 -5.5625 C 2.1875 -4.988281 2.289062 -4.445312 2.5 -3.9375 C 2.707031 -3.4375 2.984375 -2.992188 3.328125 -2.609375 C 3.671875 -2.234375 4.070312 -1.9375 4.53125 -1.71875 C 5 -1.507812 5.5 -1.40625 6.03125 -1.40625 Z M 6.03125 -1.40625 "/></g></g></g><g fill="#004aad" fill-opacity="1"><g transform="translate(292.075984, 121.840174)"><g><path d="M 10.046875 0 L 8 0 L 4.5 -4.796875 L 2.546875 -4.796875 L 2.546875 0 L 0.90625 0 L 0.90625 -11.109375 L 5.421875 -11.109375 C 5.859375 -11.109375 6.269531 -11.023438 6.65625 -10.859375 C 7.050781 -10.691406 7.394531 -10.46875 7.6875 -10.1875 C 7.976562 -9.90625 8.207031 -9.570312 8.375 -9.1875 C 8.539062 -8.8125 8.625 -8.40625 8.625 -7.96875 C 8.625 -7.59375 8.566406 -7.242188 8.453125 -6.921875 C 8.335938 -6.597656 8.175781 -6.304688 7.96875 -6.046875 C 7.757812 -5.785156 7.515625 -5.554688 7.234375 -5.359375 C 6.953125 -5.171875 6.644531 -5.03125 6.3125 -4.9375 Z M 5.421875 -6.328125 C 5.640625 -6.328125 5.847656 -6.367188 6.046875 -6.453125 C 6.242188 -6.546875 6.410156 -6.664062 6.546875 -6.8125 C 6.691406 -6.957031 6.804688 -7.128906 6.890625 -7.328125 C 6.972656 -7.535156 7.015625 -7.757812 7.015625 -8 C 7.015625 -8.226562 6.972656 -8.441406 6.890625 -8.640625 C 6.804688 -8.835938 6.691406 -9.007812 6.546875 -9.15625 C 6.410156 -9.3125 6.242188 -9.429688 6.046875 -9.515625 C 5.847656 -9.609375 5.640625 -9.65625 5.421875 -9.65625 L 2.546875 -9.65625 L 2.546875 -6.3125 Z M 5.421875 -6.328125 "/></g></g></g><g fill="#004aad" fill-opacity="1"><g transform="translate(304.702216, 121.840174)"><g><path d="M 3.890625 -9.765625 L 3.890625 -1.34375 L 4.703125 -1.34375 L 4.703125 0 L 1.421875 0 L 1.421875 -1.34375 L 2.25 -1.34375 L 2.25 -9.765625 L 1.421875 -9.765625 L 1.421875 -11.109375 L 4.703125 -11.109375 L 4.703125 -9.765625 Z M 3.890625 -9.765625 "/></g></g></g><g fill="#004aad" fill-opacity="1"><g transform="translate(313.20907, 121.840174)"><g><path d="M 7.65625 -11.109375 L 7.65625 -9.640625 L 2.5 -9.640625 L 2.5 -6.609375 L 7.09375 -6.609375 L 7.09375 -5.09375 L 2.5 -5.09375 L 2.5 -1.515625 L 7.65625 -1.515625 L 7.65625 0 L 0.875 0 L 0.875 -11.109375 Z M 7.65625 -11.109375 "/></g></g></g><g fill="#004aad" fill-opacity="1"><g transform="translate(324.15936, 121.840174)"><g><path d="M 8.296875 -3.125 C 8.296875 -2.644531 8.195312 -2.203125 8 -1.796875 C 7.8125 -1.398438 7.535156 -1.050781 7.171875 -0.75 C 6.453125 -0.144531 5.53125 0.15625 4.40625 0.15625 C 3.53125 0.15625 2.734375 -0.0195312 2.015625 -0.375 C 1.304688 -0.738281 0.785156 -1.222656 0.453125 -1.828125 L 1.84375 -2.546875 C 2.050781 -2.171875 2.382812 -1.878906 2.84375 -1.671875 C 3.300781 -1.472656 3.820312 -1.375 4.40625 -1.375 C 5.914062 -1.375 6.671875 -1.957031 6.671875 -3.125 C 6.671875 -3.34375 6.628906 -3.53125 6.546875 -3.6875 C 6.472656 -3.84375 6.359375 -3.988281 6.203125 -4.125 C 5.828125 -4.4375 5.15625 -4.71875 4.1875 -4.96875 C 3.601562 -5.113281 3.101562 -5.273438 2.6875 -5.453125 C 2.28125 -5.628906 1.941406 -5.835938 1.671875 -6.078125 C 1.015625 -6.609375 0.6875 -7.316406 0.6875 -8.203125 C 0.6875 -8.640625 0.769531 -9.046875 0.9375 -9.421875 C 1.113281 -9.804688 1.359375 -10.140625 1.671875 -10.421875 C 1.992188 -10.703125 2.375 -10.910156 2.8125 -11.046875 C 3.25 -11.191406 3.726562 -11.265625 4.25 -11.265625 C 5.007812 -11.265625 5.707031 -11.117188 6.34375 -10.828125 C 6.988281 -10.535156 7.476562 -10.125 7.8125 -9.59375 L 6.546875 -8.8125 C 6.242188 -9.175781 5.894531 -9.429688 5.5 -9.578125 C 5.101562 -9.734375 4.6875 -9.8125 4.25 -9.8125 C 3.9375 -9.8125 3.648438 -9.757812 3.390625 -9.65625 C 3.128906 -9.550781 2.910156 -9.425781 2.734375 -9.28125 C 2.578125 -9.15625 2.460938 -9 2.390625 -8.8125 C 2.328125 -8.632812 2.296875 -8.441406 2.296875 -8.234375 C 2.296875 -8.097656 2.316406 -7.957031 2.359375 -7.8125 C 2.398438 -7.664062 2.5 -7.515625 2.65625 -7.359375 C 2.820312 -7.210938 3.054688 -7.066406 3.359375 -6.921875 C 3.660156 -6.785156 4.070312 -6.648438 4.59375 -6.515625 C 5.21875 -6.359375 5.742188 -6.1875 6.171875 -6 C 6.597656 -5.820312 6.957031 -5.609375 7.25 -5.359375 C 7.945312 -4.796875 8.296875 -4.050781 8.296875 -3.125 Z M 8.296875 -3.125 "/></g></g></g><g fill="#004aad" fill-opacity="1"><g transform="translate(171.457783, 137.103981)"><g><path d="M 1.71875 -2.234375 L 1.71875 0 L 0.796875 0 L 0.796875 -6.890625 L 3.125 -6.890625 C 4.101562 -6.890625 4.800781 -6.710938 5.21875 -6.359375 C 5.644531 -6.003906 5.859375 -5.429688 5.859375 -4.640625 C 5.859375 -3.828125 5.632812 -3.222656 5.1875 -2.828125 C 4.75 -2.429688 4.070312 -2.234375 3.15625 -2.234375 Z M 4.90625 -4.640625 C 4.90625 -5.140625 4.769531 -5.5 4.5 -5.71875 C 4.226562 -5.9375 3.769531 -6.046875 3.125 -6.046875 L 1.71875 -6.046875 L 1.71875 -3.046875 L 3.125 -3.046875 C 3.769531 -3.046875 4.226562 -3.171875 4.5 -3.421875 C 4.769531 -3.671875 4.90625 -4.078125 4.90625 -4.640625 Z M 4.90625 -4.640625 "/></g></g></g><g fill="#004aad" fill-opacity="1"><g transform="translate(183.133944, 137.103981)"><g><path d="M 2.671875 0 L 0.09375 -6.890625 L 1.125 -6.890625 L 2.703125 -2.53125 C 2.765625 -2.34375 2.835938 -2.109375 2.921875 -1.828125 C 3.003906 -1.546875 3.109375 -1.179688 3.234375 -0.734375 C 3.335938 -1.085938 3.429688 -1.421875 3.515625 -1.734375 C 3.609375 -2.046875 3.691406 -2.3125 3.765625 -2.53125 L 5.34375 -6.890625 L 6.34375 -6.890625 L 3.765625 0 Z M 2.671875 0 "/></g></g></g><g fill="#004aad" fill-opacity="1"><g transform="translate(195.062658, 137.103981)"><g><path d="M 5.671875 -6.890625 L 5.671875 -6.046875 L 3.390625 -6.046875 L 3.390625 0 L 2.453125 0 L 2.453125 -6.046875 L 0.171875 -6.046875 L 0.171875 -6.890625 Z M 5.671875 -6.890625 "/></g></g></g><g fill="#004aad" fill-opacity="1"><g transform="translate(206.387449, 137.103981)"><g/></g></g><g fill="#004aad" fill-opacity="1"><g transform="translate(213.759241, 137.103981)"><g><path d="M 5.015625 -0.875 L 5.015625 0 L 0.796875 0 L 0.796875 -6.890625 L 1.71875 -6.890625 L 1.71875 -0.875 Z M 5.015625 -0.875 "/></g></g></g><g fill="#004aad" fill-opacity="1"><g transform="translate(224.43617, 137.103981)"><g><path d="M 5.671875 -6.890625 L 5.671875 -6.046875 L 3.390625 -6.046875 L 3.390625 0 L 2.453125 0 L 2.453125 -6.046875 L 0.171875 -6.046875 L 0.171875 -6.890625 Z M 5.671875 -6.890625 "/></g></g></g><g fill="#004aad" fill-opacity="1"><g transform="translate(235.760959, 137.103981)"><g><path d="M 2.796875 0 L 0.796875 0 L 0.796875 -6.890625 L 2.796875 -6.890625 C 3.492188 -6.890625 4.046875 -6.828125 4.453125 -6.703125 C 4.867188 -6.585938 5.203125 -6.40625 5.453125 -6.15625 C 5.703125 -5.894531 5.882812 -5.546875 6 -5.109375 C 6.113281 -4.671875 6.171875 -4.117188 6.171875 -3.453125 C 6.171875 -2.253906 5.898438 -1.378906 5.359375 -0.828125 C 4.828125 -0.273438 3.972656 0 2.796875 0 Z M 4.75 -5.484375 C 4.582031 -5.679688 4.347656 -5.820312 4.046875 -5.90625 C 3.753906 -6 3.335938 -6.046875 2.796875 -6.046875 L 1.71875 -6.046875 L 1.71875 -0.875 L 2.796875 -0.875 C 3.703125 -0.875 4.332031 -1.066406 4.6875 -1.453125 C 5.039062 -1.847656 5.21875 -2.515625 5.21875 -3.453125 C 5.21875 -3.972656 5.179688 -4.394531 5.109375 -4.71875 C 5.035156 -5.039062 4.914062 -5.296875 4.75 -5.484375 Z M 4.75 -5.484375 "/></g></g></g></svg>